<?xml version="1.0" standalone="no"?>
<!DOCTYPE svg PUBLIC "-//W3C//DTD SVG 20010904//EN"
 "http://www.w3.org/TR/2001/REC-SVG-20010904/DTD/svg10.dtd">
<svg version="1.0" xmlns="http://www.w3.org/2000/svg"
 width="900.000000pt" height="900.000000pt" viewBox="0 0 900.000000 900.000000"
 preserveAspectRatio="xMidYMid meet">

<g transform="translate(0.000000,900.000000) scale(0.100000,-0.100000)"
fill="#000000" stroke="none">
<path d="M2466 8108 c-8 -13 -507 -830 -1110 -1816 l-1096 -1792 1064 -1888
1063 -1887 2128 0 2128 0 1063 1857 1064 1858 -1079 1842 -1078 1843 -2066 3
-2067 2 -14 -22z m4519 -1270 c313 -541 603 -1044 646 -1118 l78 -135 -407 -3
c-337 -2 -409 0 -417 12 -5 7 -205 351 -444 765 l-435 751 -894 0 -894 0 20
-32 c33 -55 711 -1232 1008 -1750 l279 -488 1296 0 1297 0 101 -171 c56 -94
101 -175 101 -180 0 -12 -338 -602 -1248 -2179 l-649 -1125 -1707 -3 c-1365
-2 -1707 0 -1703 10 2 7 295 508 650 1113 l646 1100 400 3 c221 1 401 0 401
-2 0 -2 -193 -343 -428 -757 l-428 -754 451 -7 c247 -4 642 -7 878 -5 l428 2
644 1129 645 1128 -1087 -3 -1087 -4 -139 245 c-77 135 -293 511 -480 835
-598 1035 -1487 2588 -1487 2596 0 5 765 9 1699 9 l1699 0 567 -982z m-4034
327 c204 -346 372 -635 372 -641 0 -15 -394 -704 -403 -704 -4 0 -81 128 -170
285 -90 157 -167 284 -171 283 -10 -4 -375 -629 -796 -1366 l-304 -532 537
-928 c296 -510 543 -935 549 -944 10 -15 52 52 285 455 151 259 397 683 547
940 150 258 273 473 273 478 0 5 -54 106 -120 223 -66 118 -125 226 -131 239
-10 23 6 56 187 371 108 190 200 346 204 346 10 0 671 -1171 668 -1184 -7 -25
-1909 -3309 -1914 -3303 -1 1 -428 746 -948 1655 l-946 1653 182 317 c99 174
256 448 348 607 92 160 265 463 385 675 552 980 979 1720 986 1713 4 -4 175
-291 380 -638z"/>
</g>
</svg>
